<?xml version="1.0" encoding="utf-8"?>
<!-- Generator: Adobe Illustrator 18.1.1, SVG Export Plug-In . SVG Version: 6.00 Build 0)  -->
<!DOCTYPE svg PUBLIC "-//W3C//DTD SVG 1.1//EN" "http://www.w3.org/Graphics/SVG/1.1/DTD/svg11.dtd">
<svg version="1.1" id="Layer_1" xmlns="http://www.w3.org/2000/svg" xmlns:xlink="http://www.w3.org/1999/xlink" x="0px" y="0px"
	 width="32.25px" height="35.24px" viewBox="0 0 32.25 35.24" enable-background="new 0 0 32.25 35.24" xml:space="preserve">
<g>
	<g>
		<g>
			<path fill="#7E8C8C" d="M9.61,13.89H6.84c-0.55,0-1-0.45-1-1v-2.77c0-0.55,0.45-1,1-1h2.77c0.55,0,1,0.45,1,1v2.77
				C10.61,13.44,10.16,13.89,9.61,13.89z"/>
			<path fill="#7E8C8C" d="M25.42,13.89H14.59c-0.55,0-1-0.45-1-1v-2.77c0-0.55,0.45-1,1-1h10.82c0.55,0,1,0.45,1,1v2.77
				C26.42,13.44,25.97,13.89,25.42,13.89z"/>
		</g>
		<g>
			<path fill="#7E8C8C" d="M9.61,20.01H6.84c-0.55,0-1-0.45-1-1v-2.77c0-0.55,0.45-1,1-1h2.77c0.55,0,1,0.45,1,1v2.77
				C10.61,19.56,10.16,20.01,9.61,20.01z"/>
			<path fill="#7E8C8C" d="M25.42,20.01H14.59c-0.55,0-1-0.45-1-1v-2.77c0-0.55,0.45-1,1-1h10.82c0.55,0,1,0.45,1,1v2.77
				C26.42,19.56,25.97,20.01,25.42,20.01z"/>
		</g>
		<g>
			<path fill="#7E8C8C" d="M9.61,26.12H6.84c-0.55,0-1-0.45-1-1v-2.77c0-0.55,0.45-1,1-1h2.77c0.55,0,1,0.45,1,1v2.77
				C10.61,25.67,10.16,26.12,9.61,26.12z"/>
			<path fill="#7E8C8C" d="M25.42,26.12H14.59c-0.55,0-1-0.45-1-1v-2.77c0-0.55,0.45-1,1-1h10.82c0.55,0,1,0.45,1,1v2.77
				C26.42,25.67,25.97,26.12,25.42,26.12z"/>
		</g>
	</g>
</g>
</svg>
