<?xml version="1.0" encoding="utf-8"?>
<!-- Generator: Adobe Illustrator 18.1.1, SVG Export Plug-In . SVG Version: 6.00 Build 0)  -->
<!DOCTYPE svg PUBLIC "-//W3C//DTD SVG 1.1//EN" "http://www.w3.org/Graphics/SVG/1.1/DTD/svg11.dtd">
<svg version="1.1" id="Layer_1" xmlns="http://www.w3.org/2000/svg" xmlns:xlink="http://www.w3.org/1999/xlink" x="0px" y="0px"
	 width="32.25px" height="35.24px" viewBox="0 0 32.25 35.24" enable-background="new 0 0 32.25 35.24" xml:space="preserve">
<g>
	<g>
		<path fill="#D1D3D4" d="M10.07,14.1H7.3c-0.55,0-1-0.45-1-1v-2.77c0-0.55,0.45-1,1-1h2.77c0.55,0,1,0.45,1,1v2.77
			C11.07,13.65,10.62,14.1,10.07,14.1z"/>
		<path fill="#D1D3D4" d="M25.88,14.1H15.05c-0.55,0-1-0.45-1-1v-2.77c0-0.55,0.45-1,1-1h10.82c0.55,0,1,0.45,1,1v2.77
			C26.88,13.65,26.43,14.1,25.88,14.1z"/>
	</g>
	<g>
		<path fill="#D1D3D4" d="M10.07,20.22H7.3c-0.55,0-1-0.45-1-1v-2.77c0-0.55,0.45-1,1-1h2.77c0.55,0,1,0.45,1,1v2.77
			C11.07,19.77,10.62,20.22,10.07,20.22z"/>
		<path fill="#D1D3D4" d="M25.88,20.22H15.05c-0.55,0-1-0.45-1-1v-2.77c0-0.55,0.45-1,1-1h10.82c0.55,0,1,0.45,1,1v2.77
			C26.88,19.77,26.43,20.22,25.88,20.22z"/>
	</g>
	<g>
		<path fill="#D1D3D4" d="M10.07,26.33H7.3c-0.55,0-1-0.45-1-1v-2.77c0-0.55,0.45-1,1-1h2.77c0.55,0,1,0.45,1,1v2.77
			C11.07,25.88,10.62,26.33,10.07,26.33z"/>
		<path fill="#D1D3D4" d="M25.88,26.33H15.05c-0.55,0-1-0.45-1-1v-2.77c0-0.55,0.45-1,1-1h10.82c0.55,0,1,0.45,1,1v2.77
			C26.88,25.88,26.43,26.33,25.88,26.33z"/>
	</g>
</g>
</svg>
