<?xml version="1.0" encoding="utf-8"?>
<!-- Generator: Adobe Illustrator 18.1.1, SVG Export Plug-In . SVG Version: 6.00 Build 0)  -->
<!DOCTYPE svg PUBLIC "-//W3C//DTD SVG 1.1//EN" "http://www.w3.org/Graphics/SVG/1.1/DTD/svg11.dtd">
<svg version="1.1" id="Layer_1" xmlns="http://www.w3.org/2000/svg" xmlns:xlink="http://www.w3.org/1999/xlink" x="0px" y="0px"
	 width="32.25px" height="35.24px" viewBox="0 0 32.25 35.24" enable-background="new 0 0 32.25 35.24" xml:space="preserve">
<g id="Layer_1_1_">
	<path fill="#00A6A0" d="M24.62,25.9C24.62,25.79,24.62,25.79,24.62,25.9c2.26-2.26,3.44-5.16,3.44-8.39c0-0.65,0-1.29-0.11-1.83
		l0,0l0,0l0,0l0,0c-0.32-2.15-1.29-4.09-2.58-5.7l0,0l0,0c0,0,0-0.11-0.11-0.11c-2.26-2.58-5.49-4.2-9.14-4.2
		c-3.23,0-6.35,1.4-8.5,3.55l0,0l0,0c0,0,0,0,0,0.11c-2.15,2.15-3.44,5.06-3.44,8.28c0,0.65,0,1.29,0.11,1.83l0,0l0,0
		c0.32,2.15,1.29,4.09,2.58,5.7l0,0l0,0l0,0l0,0c0,0,0,0,0,0.11c2.26,2.58,5.49,4.3,9.14,4.3c3.23,0,6.24-1.29,8.39-3.44
		C24.52,26.01,24.52,25.9,24.62,25.9L24.62,25.9L24.62,25.9L24.62,25.9z M23.76,25.26c-1.51,1.4-4.3,1.61-7.31,0.43
		c1.08-0.43,2.26-1.08,3.23-1.83c0.22,0.22,0.54,0.32,0.86,0.32c0.86,0,1.61-0.75,1.61-1.61c0-0.22,0-0.43-0.11-0.65
		c0.86-0.86,1.72-1.83,2.26-2.8c0.86,2.47,0.75,4.84-0.43,6.13C23.87,25.15,23.87,25.15,23.76,25.26z M8.17,9.77
		C8.27,9.77,8.27,9.77,8.17,9.77c1.61-1.51,4.3-1.51,7.21-0.32l0,0c-1.29,0.75-2.58,1.51-3.87,2.58c0,0-0.11,0.11-0.22,0.22
		c-0.11-0.11-0.22-0.22-0.43-0.22c-0.54,0-0.86,0.43-0.86,0.86c0,0.11,0,0.32,0.11,0.43c-0.97,1.08-1.83,2.15-2.47,3.23
		C6.66,13.75,6.88,11.17,8.17,9.77z M21.51,21.06c-0.22-0.11-0.43-0.22-0.75-0.22c-0.86,0-1.61,0.75-1.61,1.61
		c0,0.22,0,0.43,0.11,0.54c-0.75,0.54-1.61,1.08-2.47,1.4c0.54-1.29,1.08-2.8,1.61-4.52c1.4-0.32,3.23-0.75,5.06-1.29
		C22.9,19.56,22.26,20.31,21.51,21.06z M12.9,24.07c0.54,0.43,1.18,0.86,1.83,1.29c-0.65,0.22-1.29,0.32-1.83,0.43
		C12.79,25.26,12.79,24.72,12.9,24.07z M10.86,21.17c-0.11,0-0.32,0-0.43,0.11c-0.11-0.11-0.22-0.32-0.32-0.43
		c0.75,0,1.4,0,2.15-0.11c-0.11,0.75-0.22,1.4-0.32,2.04c-0.11-0.11-0.22-0.22-0.32-0.32c0.11-0.11,0.11-0.32,0.11-0.43
		C11.72,21.6,11.29,21.17,10.86,21.17z M10.32,13.53c0.11,0.11,0.32,0.22,0.43,0.22c0.43,0,0.86-0.43,0.86-0.86
		c0-0.11,0-0.32-0.11-0.43c0,0,0.11-0.11,0.22-0.11c1.08-0.86,2.26-1.61,3.44-2.15c-0.43,0.86-0.86,1.83-1.18,3.01
		c-0.97,0.11-1.72,0.86-1.72,1.83c0,0.11,0,0.32,0,0.43c-1.29,0.32-2.8,0.65-4.2,1.08C8.7,15.58,9.46,14.5,10.32,13.53z
		 M19.46,10.74c-0.75-0.54-1.4-0.97-2.15-1.4c0.75-0.22,1.4-0.32,2.15-0.43C19.46,9.44,19.46,10.09,19.46,10.74z M25.16,14.93
		c-0.11,0.54-0.43,1.18-0.65,1.83c-0.32-0.54-0.65-1.08-0.97-1.61c0-0.11,0.11-0.22,0.11-0.32C24.3,14.72,24.73,14.82,25.16,14.93z
		 M17.09,19.23c-0.22-0.43-0.65-0.75-1.18-0.75c-0.65,0-1.18,0.43-1.29,1.18c-0.43,0-0.75,0.11-1.18,0.11
		c0.22-0.97,0.43-1.94,0.65-2.9c0.97,0,1.83-0.75,1.83-1.72c0.43,0,0.75-0.11,1.08-0.11c0.11,0.22,0.32,0.43,0.65,0.43
		s0.54-0.22,0.65-0.54c0.32,0,0.65,0,0.97-0.11c0,0.43-0.11,0.86-0.22,1.18c-0.43,0-0.75,0.43-0.75,0.86c0,0.32,0.22,0.65,0.43,0.75
		c0,0.22-0.11,0.43-0.11,0.65c0,0.22-0.11,0.54-0.22,0.86C17.85,19.13,17.42,19.23,17.09,19.23z M18.92,18.16
		c0-0.22,0.11-0.32,0.11-0.54c0.43,0,0.86-0.43,0.86-0.86c0-0.32-0.22-0.65-0.43-0.75c0.11-0.43,0.22-0.86,0.22-1.4
		c0.43,0,0.86,0,1.29,0c0.11,0.65,0.75,1.08,1.4,1.08c0.11,0,0.32,0,0.43,0c0.43,0.65,0.86,1.29,1.08,1.94
		c-1.29,0.43-3.01,0.97-5.06,1.4C18.82,18.7,18.82,18.37,18.92,18.16z M20.86,14.29c-0.43,0-0.86,0-1.18,0.11
		c0.11-0.65,0.22-1.29,0.22-1.83c0.22,0.11,0.43,0.32,0.65,0.43c0.22,0.22,0.43,0.43,0.54,0.54C20.97,13.75,20.86,13.96,20.86,14.29
		z M19.14,14.39c-0.32,0-0.75,0-0.97,0.11c-0.11-0.22-0.32-0.43-0.65-0.43s-0.65,0.22-0.65,0.54c-0.43,0-0.86,0.11-0.97,0.11
		c-0.11-0.54-0.43-0.97-0.86-1.29c0.43-1.29,0.86-2.47,1.4-3.55c0.97,0.54,2.04,1.18,3.01,2.04C19.35,12.78,19.25,13.53,19.14,14.39
		z M7.84,17.19c1.18-0.43,2.69-0.97,4.52-1.4c0.11,0.32,0.43,0.54,0.65,0.75v0.11c-0.22,1.18-0.43,2.26-0.65,3.23
		c-1.08,0.11-2.15,0.11-2.9,0.11C8.81,19.13,8.27,18.16,7.84,17.19z M8.92,19.99c-0.86,0-1.51-0.11-2.04-0.11
		c0.11-0.65,0.43-1.4,0.65-2.15C7.84,18.48,8.38,19.23,8.92,19.99z M13.22,20.74c0.54,0,1.08-0.11,1.51-0.11
		c0.22,0.32,0.65,0.54,1.08,0.54c0.54,0,1.08-0.43,1.29-0.86c0.22,0,0.43-0.11,0.75-0.11c-0.54,1.61-1.18,3.33-1.83,4.73
		c-0.22,0.11-0.43,0.22-0.75,0.32c-0.75-0.54-1.61-0.97-2.37-1.61C12.9,22.68,13.11,21.71,13.22,20.74z M26.13,15.15
		c0.43,0.22,0.75,0.43,0.75,0.54l0,0c0,0.22-0.43,0.65-1.4,1.08C25.81,16.22,26.02,15.68,26.13,15.15z M26.24,14.39
		c0-0.32,0.11-0.54,0.11-0.86c0.11,0.32,0.22,0.65,0.32,0.86C26.56,14.5,26.45,14.5,26.24,14.39z M25.27,14.29
		c-0.43,0-0.97-0.11-1.51-0.11c0-0.75-0.65-1.4-1.4-1.4c-0.22,0-0.32,0-0.43,0.11c-0.22-0.22-0.43-0.43-0.54-0.65
		c-0.43-0.43-0.86-0.75-1.29-1.08c0-0.86,0-1.72,0-2.37c1.94-0.11,3.55,0.43,4.52,1.51c0.11,0.22,0.32,0.43,0.43,0.65
		C25.49,11.81,25.59,12.89,25.27,14.29z M20.97,8.05c-0.32,0-0.65,0-1.08,0c0-0.43-0.11-0.75-0.22-1.08
		c0.86,0.32,1.51,0.65,2.26,1.08C21.51,8.05,21.29,8.05,20.97,8.05z M18.71,6.86L18.71,6.86L18.71,6.86
		c0.32,0.11,0.43,0.54,0.65,1.4c-0.75,0.11-1.61,0.32-2.37,0.65C17.53,7.51,18.17,6.76,18.71,6.86z M6.12,19.66
		c-0.43-0.11-0.75-0.32-0.86-0.43l0,0l0,0c-0.22-0.32,0.43-0.86,1.61-1.51C6.55,18.37,6.34,19.02,6.12,19.66z M5.91,20.63
		c0,0.32-0.11,0.54-0.11,0.86c-0.11-0.32-0.22-0.65-0.32-0.97C5.58,20.52,5.8,20.52,5.91,20.63z M6.66,20.74
		c0.86,0.11,1.83,0.22,2.9,0.22c0.22,0.22,0.32,0.43,0.54,0.65C10,21.71,10,21.92,10,22.03c0,0.43,0.43,0.86,0.86,0.86
		c0.22,0,0.32,0,0.43-0.11c0.22,0.22,0.43,0.32,0.54,0.54c-0.11,0.97-0.11,1.83-0.11,2.58c-1.51,0.11-2.8-0.11-3.66-0.75
		c-0.22-0.22-0.43-0.43-0.65-0.75C6.88,23.43,6.55,22.14,6.66,20.74z M11.93,26.87c0,0.32,0.11,0.54,0.22,0.86
		c-0.65-0.22-1.18-0.54-1.83-0.86C10.86,26.87,11.39,26.87,11.93,26.87z M13.44,28.05L13.44,28.05L13.44,28.05
		c-0.32-0.22-0.54-0.65-0.65-1.29c0.86-0.11,1.61-0.32,2.47-0.65C14.62,27.52,13.87,28.27,13.44,28.05z M26.02,22.25
		c0-1.29-0.22-2.69-0.86-4.09c0.75-0.32,1.4-0.65,1.83-0.97c0,0.11,0,0.32,0,0.43C27.1,19.13,26.67,20.74,26.02,22.25z M16.13,6.43
		c0.43,0,0.86,0,1.29,0c-0.54,0.54-1.08,1.18-1.51,2.15c-1.72-0.65-3.33-1.08-4.73-0.97C12.68,6.86,14.3,6.43,16.13,6.43z
		 M6.23,12.56c0,1.29,0.32,2.8,0.97,4.3c-0.86,0.32-1.51,0.65-2.04,1.08c0-0.11,0-0.32,0-0.43C5.05,15.68,5.48,14.07,6.23,12.56z
		 M16.13,28.48c-0.54,0-1.08,0-1.51-0.11c0.43-0.43,0.97-1.29,1.51-2.26c1.61,0.75,3.23,1.18,4.52,1.18c0.11,0,0.22,0,0.43,0
		C19.57,28.05,17.85,28.48,16.13,28.48z"/>
</g>
</svg>
